<svg width="24" height="24" viewBox="0 0 24 24" fill="none" xmlns="http://www.w3.org/2000/svg">
<path d="M11.6066 3.87256C13.5093 3.87256 15.334 4.62838 16.6794 5.97375C18.0247 7.31912 18.7806 9.14383 18.7806 11.0465V14.8726L20.1369 17.8952C20.1986 18.0334 20.2247 18.1849 20.213 18.3358C20.2012 18.4867 20.152 18.6323 20.0697 18.7593C19.9874 18.8864 19.8747 18.9909 19.7418 19.0633C19.6088 19.1357 19.4599 19.1738 19.3086 19.174H3.90855C3.75697 19.174 3.60781 19.1361 3.47464 19.0637C3.34147 18.9913 3.22853 18.8867 3.1461 18.7595C3.06368 18.6323 3.01438 18.4865 3.0027 18.3353C2.99102 18.1842 3.01734 18.0326 3.07924 17.8942L4.43272 14.8716V11.034L4.43751 10.7949C4.50294 8.9372 5.28689 7.17742 6.62421 5.88631C7.96152 4.59521 9.74778 3.87265 11.6066 3.87256Z" stroke="#666464" stroke-width="2"/>
<path d="M15.4334 19.1738H7.78125C7.93415 20.2437 8.40229 21.2149 9.10266 21.9153C9.80303 22.6157 10.6904 22.9999 11.6073 22.9999C12.5243 22.9999 13.4116 22.6157 14.112 21.9153C14.8124 21.2149 15.2805 20.2437 15.4334 19.1738Z" stroke="#666464" stroke-width="2"/>
<path d="M8.73743 3.86963L14.4766 3.86963C14.3619 3.06723 14.0108 2.33881 13.4855 1.81353C12.9602 1.28825 12.2947 1.00006 11.607 1.00006C10.9193 1.00006 10.2538 1.28825 9.72849 1.81353C9.20321 2.33881 8.85211 3.06723 8.73743 3.86963Z" stroke="#666464" stroke-width="2"/>
</svg>
