<svg width="24" height="24" viewBox="0 0 24 24" fill="none" xmlns="http://www.w3.org/2000/svg">
<path d="M21 10C21 6.229 21 4.343 19.828 3.172C18.657 2 16.771 2 13 2H11C7.229 2 5.343 2 4.172 3.172C3 4.343 3 6.229 3 10V14C3 17.771 3 19.657 4.172 20.828C5.343 22 7.229 22 11 22" stroke="#666464" stroke-width="2" stroke-linecap="round"/>
<path d="M12.9083 18.4016C12.6359 17.9125 12.5 17.6674 12.5 17.4002C12.5 17.133 12.6359 16.8884 12.9083 16.3993L13.6023 15.1503L14.3365 13.9244C14.6243 13.4441 14.7679 13.2036 14.9991 13.0698C15.2308 12.9364 15.5103 12.9323 16.07 12.923L17.4997 12.9004L18.9285 12.923C19.4886 12.9323 19.7682 12.9364 19.9994 13.0703C20.231 13.2042 20.3752 13.4441 20.6625 13.9244L21.3972 15.1503L22.0922 16.3993C22.3641 16.8884 22.5 17.133 22.5 17.4002C22.5 17.6674 22.3641 17.912 22.0917 18.4011L21.3972 19.6501L20.663 20.876C20.3752 21.3563 20.2316 21.5968 20.0004 21.7306C19.7687 21.864 19.4891 21.8681 18.9295 21.8774L17.4997 21.9L16.071 21.8774C15.5109 21.8681 15.2313 21.864 15.0001 21.7301C14.7684 21.5963 14.6243 21.3563 14.337 20.876L13.6023 19.6501L12.9083 18.4016Z" stroke="#666464" stroke-width="2"/>
<path d="M17.5016 18.9446C18.3546 18.9446 19.0462 18.2531 19.0462 17.4C19.0462 16.547 18.3546 15.8555 17.5016 15.8555C16.6486 15.8555 15.957 16.547 15.957 17.4C15.957 18.2531 16.6486 18.9446 17.5016 18.9446Z" stroke="#666464" stroke-width="1.5"/>
<path d="M7 7H15M7 11H12" stroke="#666464" stroke-width="2" stroke-linecap="round"/>
</svg>
