<svg width="640" height="640" viewBox="0 0 640 640" fill="none" xmlns="http://www.w3.org/2000/svg">
<path fill-rule="evenodd" clip-rule="evenodd" d="M480 71.4894C480 75.5745 476.596 78.2979 473.191 78.2979H199.489C132.085 78.2979 77.617 132.766 77.617 200.17V439.83C77.617 460.936 60.5957 478.638 38.8085 478.638C17.7021 478.638 0 461.617 0 439.83V200.17C0 89.8723 89.8723 0 200.17 0H473.191C477.277 0 480 3.40426 480 6.80851V71.4894ZM559.66 199.489C559.66 177.702 577.362 160 599.149 160C621.617 160 639.319 177.702 638.638 199.489V440.511C638.638 550.809 549.447 640 439.149 640H165.447C161.362 640 158.638 636.596 158.638 633.192V567.83C158.638 563.745 162.043 561.021 165.447 561.021H439.149C505.872 561.021 559.66 507.234 559.66 440.511V199.489ZM406.468 158.638H472.511C476.596 158.638 479.319 162.043 478.638 165.447V279.83C478.638 301.617 460.936 319.319 439.149 319.319C417.362 319.319 399.66 301.617 399.66 279.83V165.447C399.66 161.362 403.064 158.638 406.468 158.638ZM185.191 345.872C169.532 330.894 169.532 305.702 185.191 290.043C200.851 274.383 226.043 274.383 241.021 290.043L370.383 419.404C373.106 422.128 373.106 426.213 370.383 428.936L324.085 475.234C321.362 477.957 317.277 477.957 314.553 475.234L185.191 345.872Z" fill="url(#paint0_linear_319_25391)"/>
<path opacity="0.5" d="M472.511 158.638H406.469C403.064 158.638 399.66 161.362 399.66 165.447V279.83C399.66 301.617 417.362 319.319 439.149 319.319C460.937 319.319 478.639 301.617 478.639 279.83V165.447C479.32 162.042 476.596 158.638 472.511 158.638ZM185.192 290.042C169.532 305.702 169.532 330.894 185.192 345.872L314.554 475.234C317.277 477.957 321.362 477.957 324.086 475.234L370.383 428.936C373.107 426.213 373.107 422.128 370.383 419.404L241.022 290.042C226.043 274.383 200.852 274.383 185.192 290.042Z" fill="#93F155"/>
<defs>
<linearGradient id="paint0_linear_319_25391" x1="6.27939e-06" y1="20.8" x2="638.4" y2="640" gradientUnits="userSpaceOnUse">
<stop offset="0.75" stop-color="white"/>
<stop offset="1" stop-color="white"/>
</linearGradient>
</defs>
</svg>
