<svg width="557" height="94" viewBox="0 0 557 94" fill="none" xmlns="http://www.w3.org/2000/svg">
<g clip-path="url(#clip0_319_25409)">
<path d="M550.701 70.5C547.501 70.5 544.801 73.1 544.801 76.4C544.801 79.7 547.401 82.3 550.701 82.3C553.901 82.3 556.601 79.7 556.601 76.4C556.601 73.1 553.901 70.5 550.701 70.5Z" fill="black"/>
<path d="M69.5 11.5C70 11.5 70.5 11.1 70.5 10.5V1C70.5 0.5 70.1 0 69.5 0H29.4C13.2 0 0 13.2 0 29.4V64.6C0 67.8 2.6 70.3 5.7 70.3C8.9 70.3 11.4 67.7 11.4 64.6V29.4C11.4 19.5 19.4 11.5 29.3 11.5H69.5ZM88 23.5C84.8 23.5 82.2 26.1 82.2 29.3V64.7C82.2 74.5 74.3 82.4 64.5 82.4H24.3C23.8 82.4 23.3 82.8 23.3 83.4V93C23.3 93.5 23.7 94 24.3 94H64.5C80.7 94 93.8 80.9 93.8 64.7V29.3C93.9 26.1 91.3 23.5 88 23.5Z" fill="black"/>
<path d="M69.3996 23.2998H59.6996C59.1996 23.2998 58.6996 23.6998 58.6996 24.2998V41.0998C58.6996 44.2998 61.2996 46.8998 64.4996 46.8998C67.6996 46.8998 70.2996 44.2998 70.2996 41.0998V24.2998C70.3996 23.7998 69.9996 23.2998 69.3996 23.2998ZM27.1996 42.5998C24.8996 44.8998 24.8996 48.5998 27.1996 50.7998L46.1996 69.7998C46.5996 70.1998 47.1996 70.1998 47.5996 69.7998L54.3996 62.9998C54.7996 62.5998 54.7996 61.9998 54.3996 61.5998L35.3996 42.5998C33.1996 40.2998 29.4996 40.2998 27.1996 42.5998Z" fill="#93F155"/>
<path d="M161.199 36.7002V48.8002C161.199 51.7002 163.599 54.1002 166.499 54.1002C169.399 54.1002 171.799 51.7002 171.799 48.8002V26.0002C171.799 25.6002 171.499 25.2002 170.999 25.2002H148.499C138.099 25.2002 129.699 33.6002 129.699 44.0002V81.3002C129.699 81.7002 129.999 82.1002 130.499 82.1002H139.599C139.999 82.1002 140.399 81.8002 140.399 81.3002V44.1002C140.399 39.6002 144.099 35.9002 148.599 35.9002H160.499C160.799 35.9002 161.199 36.3002 161.199 36.7002ZM343.499 25.3002H321.599C311.999 25.3002 304.299 33.1002 304.299 42.6002V81.4002C304.299 81.8002 304.599 82.2002 305.099 82.2002H314.199C314.599 82.2002 314.999 81.9002 314.999 81.4002V42.6002C314.999 38.9002 317.999 35.9002 321.699 35.9002H343.599C343.999 35.9002 344.399 35.6002 344.399 35.1002V26.0002C344.299 25.6002 343.899 25.3002 343.499 25.3002ZM292.299 40.0002H271.999C261.799 40.0002 253.599 48.2002 253.599 58.4002V78.2002C253.599 81.1002 255.999 83.5002 258.899 83.5002C261.799 83.5002 264.199 81.1002 264.199 78.2002V58.4002C264.199 54.1002 267.699 50.6002 271.999 50.6002H281.699C282.099 50.6002 282.499 50.9002 282.499 51.4002V81.6002C282.499 82.0002 282.799 82.4002 283.299 82.4002H292.399C292.799 82.4002 293.199 82.1002 293.199 81.6002V40.7002C293.099 40.3002 292.699 40.0002 292.299 40.0002Z" fill="black"/>
<path d="M156.7 58.8001C156.4 58.5001 155.9 58.5001 155.6 58.8001L149 65.0001C148.7 65.3001 148.7 65.8001 149 66.1001L163.8 82.0001C165.8 84.1001 169.1 84.3001 171.3 82.3001C173.4 80.3001 173.6 77.0001 171.6 74.8001L156.7 58.8001ZM242.3 55.7001H233.2C232.8 55.7001 232.4 56.0001 232.4 56.5001V81.5001C232.4 81.9001 232.7 82.3001 233.2 82.3001H242.3C242.7 82.3001 243.1 82.0001 243.1 81.5001V56.5001C243 56.0001 242.7 55.7001 242.3 55.7001ZM237.8 38.9001C234.5 38.9001 231.9 41.6001 231.9 44.8001C231.9 48.1001 234.6 50.7001 237.8 50.7001C241.1 50.7001 243.7 48.0001 243.7 44.8001C243.8 41.6001 241.1 38.9001 237.8 38.9001ZM341.2 50.1001H330.2C327.7 50.1001 325.6 52.5001 325.6 55.4001C325.6 58.3001 327.7 60.7001 330.2 60.7001H341.2C341.6 60.7001 342 60.4001 342 59.9001V50.8001C342 50.4001 341.6 50.1001 341.2 50.1001ZM555.6 36.2001H539.5C539.1 36.2001 538.7 35.9001 538.7 35.4001V25.9001C538.7 25.5001 538.4 25.1001 537.9 25.1001H528.8C528.4 25.1001 528 25.4001 528 25.9001V81.4001C528 81.8001 528.3 82.2001 528.8 82.2001H537.9C538.3 82.2001 538.7 81.9001 538.7 81.4001V47.6001C538.7 47.2001 539 46.8001 539.5 46.8001H555.6C556 46.8001 556.4 46.5001 556.4 46.0001V36.9001C556.4 36.5001 556 36.2001 555.6 36.2001ZM220.3 39.7001H200.3C188.6 39.7001 178.9 49.3001 178.9 61.1001V62.0001C178.9 73.5001 188.2 83.5001 199.7 83.5001C202.3 83.2001 204.1 81.2001 204.3 78.9001C204.4 77.1001 203.9 73.7001 198.3 72.9001C193.2 72.2001 189.5 67.1001 189.5 62.0001V60.6001C189.5 55.0001 194.1 50.4001 199.7 50.4001H209.6C210 50.4001 210.4 50.7001 210.4 51.2001V81.4001C210.4 81.8001 210.7 82.2001 211.2 82.2001H220.3C220.7 82.2001 221.1 81.9001 221.1 81.4001V40.4001C221.1 40.0001 220.7 39.7001 220.3 39.7001ZM517.2 53.9001H503.4C500.8 53.9001 498.7 56.0001 498.7 58.6001C498.7 61.2001 500.8 63.3001 503.4 63.3001H506.5C506.9 63.3001 507.3 63.6001 507.3 64.1001V67.8001C507.3 69.9001 505.6 71.6001 503.5 71.6001H479.4C479 71.6001 478.6 71.9001 478.6 72.4001V81.5001C478.6 81.9001 478.9 82.3001 479.4 82.3001H503.5C511.5 82.3001 517.9 75.8001 517.9 67.9001V54.7001C518 54.2001 517.7 53.9001 517.2 53.9001ZM466 36.3001H445.1C433.9 36.3001 424.8 45.4001 424.8 56.6001V61.9001C424.8 73.1001 433.9 82.2001 445.1 82.2001H465.4C465.8 82.2001 466.2 81.9001 466.2 81.4001V72.3001C466.2 71.9001 465.9 71.5001 465.4 71.5001H445.1C439.7 71.5001 435.4 67.2001 435.4 61.8001V56.5001C435.4 51.1001 439.7 46.8001 445.1 46.8001H455.3C455.7 46.8001 456.1 47.1001 456.1 47.6001V52.9001C456.1 53.3001 455.8 53.7001 455.3 53.7001H451.3C448.6 53.7001 446.5 55.9001 446.5 58.5001C446.5 61.2001 448.7 63.3001 451.3 63.3001H465.9C466.3 63.3001 466.7 63.0001 466.7 62.5001V37.0001C466.7 36.6001 466.4 36.3001 466 36.3001Z" fill="black"/>
<path d="M483.1 63.4002C486.2 63.6002 488.8 61.1002 488.8 58.1002V54.1002C488.8 50.1002 492 46.9002 496 46.9002H517.3C517.7 46.9002 518.1 46.6002 518.1 46.1002V37.0002C518.1 36.6002 517.8 36.2002 517.3 36.2002H496C486.1 36.2002 478.2 44.2002 478.2 54.0002V57.8002C478.1 60.8002 480.3 63.2002 483.1 63.4002ZM417.7 36.3002H412.6C406.8 36.3002 402.1 41.0002 402.1 46.8002V81.3002C402.1 81.7002 402.4 82.1002 402.9 82.1002H412C412.4 82.1002 412.8 81.8002 412.8 81.3002V47.7002C412.8 47.3002 413.1 46.9002 413.6 46.9002H417.8C418.2 46.9002 418.6 46.6002 418.6 46.1002V37.0002C418.5 36.6002 418.1 36.3002 417.7 36.3002ZM371.5 36.4002C359.6 36.4002 349.9 46.1002 349.9 58.0002V61.2002C349.9 73.2002 359.6 82.9002 371.5 83.0002H371.6C377.2 83.0002 382.5 80.8002 386.6 76.8002C390.8 72.7002 393.1 67.1002 393.1 61.2002V58.0002C393.1 46.1002 383.4 36.4002 371.5 36.4002ZM382 61.2002C382 64.1002 380.9 66.9002 378.8 68.9002C376.9 70.8002 374.3 71.9002 371.6 71.9002C365.8 71.9002 361 67.0002 361 61.2002V58.0002C361 52.2002 365.7 47.5002 371.5 47.5002C377.3 47.5002 382 52.2002 382 58.0002V61.2002Z" fill="black"/>
</g>
<defs>
<clipPath id="clip0_319_25409">
<rect width="557" height="94" fill="white"/>
</clipPath>
</defs>
</svg>
