<svg width="256" height="256" viewBox="0 0 256 256" fill="none" xmlns="http://www.w3.org/2000/svg">
<path d="M243.808 216.503C242.011 216.503 240.494 217.963 240.494 219.817C240.494 221.671 241.955 223.131 243.808 223.131C245.606 223.131 247.123 221.671 247.123 219.817C247.123 217.963 245.606 216.503 243.808 216.503Z" fill="black"/>
<path d="M25.0093 197.516V204.313C25.0093 205.942 26.3575 207.291 27.9866 207.291C29.6156 207.291 30.9638 205.942 30.9638 204.313V191.506C30.9638 191.281 30.7953 191.056 30.5144 191.056H17.8752C12.0331 191.056 7.31445 195.775 7.31445 201.617V222.57C7.31445 222.795 7.48298 223.019 7.76385 223.019H12.8757C13.1004 223.019 13.3251 222.851 13.3251 222.57V201.673C13.3251 199.145 15.4035 197.067 17.9314 197.067H24.6161C24.7846 197.067 25.0093 197.291 25.0093 197.516ZM127.415 191.112H115.113C109.72 191.112 105.395 195.494 105.395 200.83V222.626C105.395 222.851 105.563 223.075 105.844 223.075H110.956C111.181 223.075 111.405 222.907 111.405 222.626V200.83C111.405 198.752 113.091 197.067 115.169 197.067H127.471C127.696 197.067 127.921 196.898 127.921 196.617V191.506C127.864 191.281 127.64 191.112 127.415 191.112ZM98.6538 199.37H87.2504C81.5206 199.37 76.9143 203.976 76.9143 209.706V220.828C76.9143 222.458 78.2625 223.806 79.8916 223.806C81.5206 223.806 82.8688 222.458 82.8688 220.828V209.706C82.8688 207.291 84.8349 205.324 87.2504 205.324H92.6993C92.924 205.324 93.1487 205.493 93.1487 205.774V222.738C93.1487 222.963 93.3172 223.188 93.5981 223.188H98.7099C98.9346 223.188 99.1593 223.019 99.1593 222.738V199.763C99.1032 199.538 98.8785 199.37 98.6538 199.37Z" fill="black"/>
<path d="M22.4811 209.931C22.3126 209.762 22.0317 209.762 21.8632 209.931L18.1557 213.414C17.9872 213.582 17.9872 213.863 18.1557 214.031L26.4695 222.963C27.593 224.143 29.4467 224.255 30.6825 223.132C31.8622 222.008 31.9746 220.154 30.8511 218.919L22.4811 209.931ZM70.5663 208.189H65.4544C65.2297 208.189 65.005 208.358 65.005 208.639V222.682C65.005 222.907 65.1735 223.132 65.4544 223.132H70.5663C70.791 223.132 71.0156 222.963 71.0156 222.682V208.639C70.9595 208.358 70.791 208.189 70.5663 208.189ZM68.0384 198.752C66.1847 198.752 64.7241 200.269 64.7241 202.066C64.7241 203.92 66.2408 205.381 68.0384 205.381C69.8922 205.381 71.3527 203.864 71.3527 202.066C71.4089 200.269 69.8922 198.752 68.0384 198.752ZM126.123 205.044H119.943C118.539 205.044 117.359 206.392 117.359 208.021C117.359 209.65 118.539 210.998 119.943 210.998H126.123C126.347 210.998 126.572 210.83 126.572 210.549V205.437C126.572 205.212 126.347 205.044 126.123 205.044ZM246.56 197.235H237.516C237.291 197.235 237.067 197.067 237.067 196.786V191.449C237.067 191.225 236.898 191 236.617 191H231.505C231.281 191 231.056 191.169 231.056 191.449V222.626C231.056 222.851 231.225 223.075 231.505 223.075H236.617C236.842 223.075 237.067 222.907 237.067 222.626V203.639C237.067 203.415 237.235 203.19 237.516 203.19H246.56C246.785 203.19 247.01 203.021 247.01 202.74V197.629C247.01 197.404 246.785 197.235 246.56 197.235ZM58.2079 199.201H46.9731C40.4007 199.201 34.9518 204.594 34.9518 211.223V211.728C34.9518 218.188 40.176 223.806 46.636 223.806C48.0966 223.637 49.1077 222.514 49.22 221.222C49.2762 220.211 48.9953 218.301 45.8496 217.851C42.9847 217.458 40.9063 214.593 40.9063 211.728V210.942C40.9063 207.796 43.4903 205.212 46.636 205.212H52.1973C52.422 205.212 52.6467 205.381 52.6467 205.661V222.626C52.6467 222.851 52.8152 223.075 53.0961 223.075H58.2079C58.4326 223.075 58.6573 222.907 58.6573 222.626V199.595C58.6573 199.37 58.4326 199.201 58.2079 199.201ZM224.989 207.178H217.237C215.777 207.178 214.597 208.358 214.597 209.818C214.597 211.279 215.777 212.459 217.237 212.459H218.979C219.203 212.459 219.428 212.627 219.428 212.908V214.986C219.428 216.166 218.473 217.121 217.293 217.121H203.755C203.531 217.121 203.306 217.29 203.306 217.57V222.682C203.306 222.907 203.475 223.132 203.755 223.132H217.293C221.787 223.132 225.382 219.48 225.382 215.043V207.628C225.439 207.347 225.27 207.178 224.989 207.178ZM196.228 197.292H184.488C178.196 197.292 173.084 202.403 173.084 208.695V211.672C173.084 217.964 178.196 223.075 184.488 223.075H195.891C196.116 223.075 196.34 222.907 196.34 222.626V217.514C196.34 217.29 196.172 217.065 195.891 217.065H184.488C181.454 217.065 179.039 214.649 179.039 211.616V208.639C179.039 205.605 181.454 203.19 184.488 203.19H190.217C190.442 203.19 190.667 203.358 190.667 203.639V206.616C190.667 206.841 190.498 207.066 190.217 207.066H187.97C186.454 207.066 185.274 208.302 185.274 209.762C185.274 211.279 186.51 212.459 187.97 212.459H196.172C196.397 212.459 196.621 212.29 196.621 212.009V197.685C196.621 197.46 196.453 197.292 196.228 197.292Z" fill="black"/>
<path d="M205.834 212.515C207.575 212.627 209.036 211.223 209.036 209.538V207.291C209.036 205.044 210.833 203.246 213.08 203.246H225.045C225.27 203.246 225.495 203.077 225.495 202.797V197.685C225.495 197.46 225.326 197.235 225.045 197.235H213.08C207.519 197.235 203.081 201.729 203.081 207.234V209.369C203.025 211.054 204.261 212.402 205.834 212.515ZM169.096 197.292H166.231C162.973 197.292 160.333 199.932 160.333 203.19V222.57C160.333 222.795 160.501 223.019 160.782 223.019H165.894C166.119 223.019 166.343 222.851 166.343 222.57V203.695C166.343 203.471 166.512 203.246 166.793 203.246H169.152C169.377 203.246 169.601 203.077 169.601 202.797V197.685C169.545 197.46 169.321 197.292 169.096 197.292ZM143.143 197.348C136.459 197.348 131.01 202.797 131.01 209.481V211.279C131.01 218.02 136.459 223.469 143.143 223.525H143.2C146.345 223.525 149.323 222.289 151.626 220.042C153.985 217.739 155.277 214.593 155.277 211.279V209.481C155.277 202.797 149.828 197.348 143.143 197.348ZM149.042 211.279C149.042 212.908 148.424 214.481 147.244 215.604C146.177 216.672 144.716 217.29 143.2 217.29C139.941 217.29 137.245 214.537 137.245 211.279V209.481C137.245 206.223 139.885 203.583 143.143 203.583C146.402 203.583 149.042 206.223 149.042 209.481V211.279Z" fill="black"/>
<path d="M159.514 48.1929C160.214 48.1929 160.915 47.6327 160.915 46.7923V33.4865C160.915 32.7862 160.354 32.0859 159.514 32.0859H103.35C80.6599 32.0859 62.1719 50.574 62.1719 73.2638V122.565C62.1719 127.047 65.8135 130.549 70.1553 130.549C74.6373 130.549 78.1388 126.907 78.1388 122.565V73.2638C78.1388 59.3978 89.3437 48.1929 103.21 48.1929H159.514ZM185.425 65.0002C180.943 65.0002 177.302 68.6418 177.302 73.1237V122.705C177.302 136.431 166.237 147.496 152.511 147.496H96.2066C95.5063 147.496 94.806 148.056 94.806 148.897V162.342C94.806 163.043 95.3663 163.743 96.2066 163.743H152.511C175.201 163.743 193.549 145.395 193.549 122.705V73.1237C193.689 68.6418 190.047 65.0002 185.425 65.0002Z" fill="black"/>
<path d="M159.373 64.7197H145.787C145.087 64.7197 144.387 65.28 144.387 66.1203V89.6505C144.387 94.1325 148.028 97.7741 152.51 97.7741C156.992 97.7741 160.634 94.1325 160.634 89.6505V66.1203C160.774 65.42 160.214 64.7197 159.373 64.7197ZM100.268 91.7515C97.0462 94.9729 97.0462 100.155 100.268 103.236L126.879 129.848C127.439 130.408 128.28 130.408 128.84 129.848L138.364 120.324C138.924 119.764 138.924 118.923 138.364 118.363L111.753 91.7515C108.671 88.5301 103.489 88.5301 100.268 91.7515Z" fill="#93F155"/>
</svg>
