<svg width="421" height="98" viewBox="0 0 421 98" fill="none" xmlns="http://www.w3.org/2000/svg">
<path d="M72.4412 11.9894C72.9626 11.9894 73.4836 11.5723 73.4836 10.9468V1.04255C73.4836 0.521276 73.0669 0 72.4412 0H30.6441C13.7586 0 0 13.7617 0 30.6511V67.3491C0 70.685 2.71014 73.2914 5.94132 73.2914C9.27678 73.2914 11.8823 70.581 11.8823 67.3491V30.6511C11.8823 20.3298 20.2209 11.9894 30.5401 11.9894H72.4412ZM91.7244 24.5C88.3889 24.5 85.6788 27.2106 85.6788 30.5468V67.453C85.6788 77.6702 77.4444 85.9064 67.2298 85.9064H25.3284C24.8074 85.9064 24.286 86.3233 24.286 86.9491V96.9574C24.286 97.4789 24.7031 98 25.3284 98H67.2298C84.1153 98 97.7696 84.3427 97.7696 67.453V30.5468C97.8739 27.2106 95.1638 24.5 91.7244 24.5Z" fill="black"/>
<path d="M72.3386 24.2915H62.2279C61.7069 24.2915 61.1855 24.7085 61.1855 25.334V42.8491C61.1855 46.1849 63.8957 48.8957 67.2311 48.8957C70.5666 48.8957 73.2767 46.1849 73.2767 42.8491V25.334C73.381 24.8128 72.9639 24.2915 72.3386 24.2915ZM28.3527 44.4129C25.9554 46.8107 25.9554 50.6681 28.3527 52.9616L48.1565 72.7702C48.5736 73.1871 49.1989 73.1871 49.616 72.7702L56.7037 65.681C57.1205 65.2638 57.1205 64.6383 56.7037 64.2211L36.8995 44.4129C34.6065 42.015 30.75 42.015 28.3527 44.4129Z" fill="#93F155"/>
<path d="M171.575 32.9283L177.23 34.0483C173.254 39.7603 167.544 44.9683 159.146 48.9443C158.418 47.7123 156.794 45.9203 155.618 45.0803C163.457 41.8323 168.775 37.1843 171.575 32.9283ZM172.135 36.9603H190.443V40.9923H168.44L172.135 36.9603ZM188.875 36.9603H189.883L190.835 36.6803L194.418 38.8643C186.859 50.8483 170.455 57.6803 154.779 60.7043C154.275 59.3603 153.155 57.1763 152.203 56.0003C166.984 53.5923 182.716 47.2643 188.875 37.7443V36.9603ZM169.839 40.0403C176.334 47.9923 189.715 52.9763 204.719 54.7123C203.544 55.9443 202.088 58.2403 201.36 59.7523C186.132 57.5123 172.919 51.7443 165.192 42.1123L169.839 40.0403ZM162.953 57.3443H194.362V74.5923H188.931V61.7683H168.16V74.7043H162.953V57.3443ZM165.92 68.4883H191.674V72.9123H165.92V68.4883ZM154.555 27.6083H202.312V38.9763H196.937V32.4243H159.761V38.9763H154.555V27.6083ZM174.094 23.4643L179.301 22.1763C180.757 24.4163 182.492 27.5523 183.332 29.5683L177.845 31.0243C177.118 29.0643 175.438 25.8723 174.094 23.4643ZM222.579 24.7523H235.401V29.6803H222.579V24.7523ZM222.579 37.6883H235.569V42.6163H222.579V37.6883ZM244.415 44.1283H264.458V49.0003H244.415V44.1283ZM222.467 50.9603H235.401V55.9443H222.467V50.9603ZM220.452 24.7523H225.267V45.0243C225.267 53.8723 224.707 66.5283 220.788 74.8163C219.836 74.0323 217.709 72.8003 216.477 72.3523C220.172 64.5683 220.452 53.2563 220.452 45.0243V24.7523ZM232.433 24.7523H237.36V68.7123C237.36 71.3443 236.856 72.9123 235.289 73.7523C233.665 74.6483 231.369 74.7603 227.618 74.7043C227.45 73.4163 226.835 71.0083 226.163 69.6643C228.514 69.7203 230.754 69.7203 231.425 69.6643C232.153 69.6643 232.433 69.4403 232.433 68.6563V24.7523ZM261.099 24.8643H266.194V35.7283C266.194 38.1923 265.69 39.5363 263.674 40.2643C261.715 40.9923 258.691 40.9923 254.436 40.9923C254.212 39.5363 253.485 37.7443 252.813 36.5123C255.948 36.6243 259.083 36.6243 259.979 36.5683C260.875 36.5123 261.099 36.3443 261.099 35.6723V24.8643ZM263.002 44.1283H263.898L264.738 43.9603L267.873 45.0243C265.186 59.4723 258.411 69.2163 249.509 74.5363C248.894 73.3603 247.494 71.5123 246.43 70.6163C254.38 66.4163 260.819 56.8963 263.002 45.0803V44.1283ZM251.469 47.2643C254.548 57.5683 260.875 66.5843 269.497 70.7283C268.377 71.6803 266.922 73.5283 266.138 74.7603C257.068 69.8883 250.797 60.0883 247.27 48.3843L251.469 47.2643ZM241.503 24.8643H262.443V29.7923H246.486V74.7043H241.503V24.8643ZM294.188 58.7443L299.506 60.7043C296.203 65.0723 291.22 69.6643 287.021 72.5203C285.957 71.5683 283.774 69.8323 282.43 69.0483C286.741 66.5283 291.388 62.5523 294.188 58.7443ZM314.455 60.9283L318.71 58.1283C323.133 61.2643 328.676 65.8003 331.531 68.8803L326.884 72.0163C324.309 68.9923 318.878 64.2323 314.455 60.9283ZM304.937 53.7043H310.312V68.7123C310.312 71.5123 309.752 72.9123 307.625 73.7523C305.553 74.5923 302.53 74.6483 298.443 74.6483C298.163 73.0803 297.267 70.8403 296.427 69.4403C299.618 69.5523 302.81 69.5523 303.761 69.4963C304.713 69.4403 304.937 69.2723 304.937 68.6003V53.7043ZM319.046 22.6243L322.965 26.7683C312.999 30.9683 298.219 34.0483 285.174 36.1203C285.006 34.7763 284.222 32.8163 283.662 31.6403C296.483 29.5683 310.76 26.3203 319.046 22.6243ZM286.629 58.6883C286.405 57.6243 285.621 55.1043 285.062 53.7043C287.021 53.4803 289.373 52.5843 292.788 50.9603C296.595 49.2803 308.464 43.1203 317.478 36.0643L321.453 39.5923C311.488 46.8163 300.57 52.3603 290.212 56.3923V56.5603C290.212 56.5603 286.629 57.7363 286.629 58.6883ZM286.629 58.6883L286.461 54.7123L289.876 52.8643L325.149 50.4563C324.981 51.8563 324.981 53.9283 325.037 54.9923C292.452 57.4563 288.981 57.7923 286.629 58.6883ZM289.373 46.7043C289.149 45.6963 288.421 43.1203 287.861 41.7763C289.205 41.5523 290.604 40.9923 292.508 39.9843C294.523 38.9763 300.85 35.2243 305.497 31.0243L310.144 33.9923C304.657 38.1923 298.555 41.8323 292.732 44.2963V44.4083C292.732 44.4083 289.373 45.7523 289.373 46.7043ZM289.373 46.7043L289.317 43.0083L292.172 41.4403L313.111 40.4323C312.831 41.7203 312.551 43.6803 312.495 44.6883C293.46 45.8643 290.996 46.1443 289.373 46.7043ZM315.855 45.9203L320.222 43.7363C324.309 47.6563 329.068 52.8643 331.475 56.2243L326.94 58.9683C324.645 55.5523 319.83 49.9523 315.855 45.9203ZM385.055 38.1363L389.366 36.2323C392.278 40.5443 395.749 46.2563 397.205 49.9523L392.502 52.1923C391.158 48.5523 387.911 42.5603 385.055 38.1363ZM366.691 29.5683H396.757V34.5523H366.691V29.5683ZM382.256 46.9843H387.239V67.2003C387.239 68.8243 387.407 69.0483 388.471 69.0483C388.974 69.0483 391.102 69.0483 391.718 69.0483C392.838 69.0483 393.005 68.0403 393.117 61.4883C394.237 62.3843 396.309 63.1683 397.708 63.5603C397.261 71.5683 396.029 73.7523 392.222 73.7523C391.326 73.7523 388.527 73.7523 387.687 73.7523C383.264 73.7523 382.256 72.1843 382.256 67.2563V46.9843ZM372.906 48.1603H377.889C377.497 61.6563 376.097 70.0563 366.243 74.9843C365.628 73.6403 364.172 71.7923 362.996 70.8403C371.674 66.8083 372.57 59.9203 372.906 48.1603ZM368.035 51.0163L367.867 46.9843L370.722 45.2483L392.166 43.1763C392.278 44.5203 392.502 46.5363 392.726 47.6003C372.346 49.8963 369.715 50.2323 368.035 51.0163ZM368.035 51.0163C367.755 49.8963 366.859 47.2643 366.243 45.8083C367.475 45.4723 368.595 44.0163 370.107 41.7203C371.73 39.4803 376.601 30.8563 379.457 22.6243L385.223 24.1923C381.472 33.0403 376.377 41.8883 371.674 47.9923V48.1043C371.674 48.1043 368.035 49.9523 368.035 51.0163ZM358.853 45.1923L362.548 43.8483C364.284 47.4323 365.964 52.0803 366.523 55.0483L362.604 56.6163C362.044 53.6483 360.533 48.8323 358.853 45.1923ZM353.758 59.7523L357.621 58.8563C358.293 62.5523 358.909 67.3683 359.077 70.5603L355.046 71.5683C354.934 68.3763 354.374 63.5043 353.758 59.7523ZM347.6 59.1923L351.799 59.9203C351.239 64.8483 350.231 70.1683 349.111 73.5843C348.215 73.0803 346.144 72.4083 345.08 72.1283C346.424 68.7683 347.152 63.7283 347.6 59.1923ZM346.76 44.2963C346.48 43.2323 345.696 40.8243 345.136 39.4803C346.144 39.2003 347.096 38.1363 348.271 36.4003C349.447 34.8323 353.198 28.4483 355.382 22.4003L360.197 24.4723C357.397 30.6323 353.534 37.0723 349.895 41.5523V41.6643C349.895 41.6643 346.76 43.2883 346.76 44.2963ZM346.76 44.2963L346.704 40.7683L348.831 39.3683L358.573 38.5843C358.349 39.8163 358.125 41.5523 358.125 42.5603C349.335 43.4563 347.712 43.7923 346.76 44.2963ZM347.152 57.0643C346.928 56.0563 346.144 53.5923 345.528 52.2483C346.872 51.9123 348.048 50.5683 349.783 48.4403C351.687 46.4243 357.509 38.3043 361.037 30.5203L365.516 33.2083C361.261 40.9363 355.774 48.7763 350.287 54.3763V54.4883C350.287 54.4883 347.152 56.0563 347.152 57.0643ZM347.152 57.0643L346.928 53.3683L349.111 51.8563L363.556 49.6163C363.388 50.8483 363.332 52.6403 363.444 53.6483C350.231 55.8883 348.383 56.4483 347.152 57.0643ZM359.917 58.5203L363.556 57.2883C364.732 60.4243 366.019 64.4003 366.579 67.0323L362.716 68.3763C362.268 65.7443 361.037 61.6563 359.917 58.5203Z" fill="black"/>
</svg>
