<svg width="399" height="98" viewBox="0 0 399 98" fill="none" xmlns="http://www.w3.org/2000/svg">
<path d="M72.4574 11.9894C72.9789 11.9894 73.5 11.5723 73.5 10.9468V1.04255C73.5 0.521276 73.0832 0 72.4574 0H30.6511C13.7617 0 0 13.7617 0 30.6511V67.3491C0 70.685 2.71064 73.2914 5.94255 73.2914C9.27871 73.2914 11.8851 70.581 11.8851 67.3491V30.6511C11.8851 20.3298 20.2255 11.9894 30.5468 11.9894H72.4574ZM91.7448 24.5C88.4086 24.5 85.6979 27.2106 85.6979 30.5468V67.453C85.6979 77.6702 77.4617 85.9064 67.2448 85.9064H25.3341C24.8128 85.9064 24.2915 86.3233 24.2915 86.9491V96.9574C24.2915 97.4789 24.7085 98 25.3341 98H67.2448C84.1341 98 97.7914 84.3427 97.7914 67.453V30.5468C97.8957 27.2106 95.185 24.5 91.7448 24.5Z" fill="black"/>
<path d="M72.3411 24.2915H62.2282C61.707 24.2915 61.1855 24.7085 61.1855 25.334V42.8491C61.1855 46.1849 63.8963 48.8957 67.2325 48.8957C70.5687 48.8957 73.2794 46.1849 73.2794 42.8491V25.334C73.3837 24.8128 72.9665 24.2915 72.3411 24.2915ZM28.3453 44.4129C25.9474 46.8107 25.9474 50.6681 28.3453 52.9616L48.1536 72.7702C48.5708 73.1871 49.1963 73.1871 49.6135 72.7702L56.7027 65.681C57.1196 65.2638 57.1196 64.6383 56.7027 64.2211L36.8941 44.4129C34.6006 42.015 30.7431 42.015 28.3453 44.4129Z" fill="#93F155"/>
<path d="M171.669 32.8722L176.205 33.7682C172.341 39.2002 166.685 44.5202 158.453 48.6082C157.837 47.6002 156.549 46.2002 155.597 45.5842C163.381 42.1122 168.813 37.2402 171.669 32.8722ZM171.165 37.0722H190.709V40.4322H168.197L171.165 37.0722ZM189.477 37.0722H190.317L191.101 36.9042L193.901 38.6402C186.341 50.2882 169.709 57.2322 154.533 60.3122C154.141 59.2482 153.189 57.5122 152.461 56.6162C166.909 54.0402 183.037 47.4322 189.477 37.7442V37.0722ZM169.429 39.7042C175.981 48.1042 189.533 53.5362 204.541 55.4402C203.589 56.3922 202.469 58.1842 201.853 59.4162C186.789 57.0642 173.237 51.0722 165.733 41.3842L169.429 39.7042ZM163.381 57.2322H194.013V74.3682H189.701V60.8162H167.525V74.4242H163.381V57.2322ZM165.677 68.9922H191.941V72.5762H165.677V68.9922ZM154.757 28.0562H202.133V38.6402H197.877V31.9202H158.901V38.6402H154.757V28.0562ZM174.693 23.5202L178.725 22.5122C180.237 24.6402 181.973 27.6642 182.757 29.6242L178.445 30.8562C177.717 28.9522 176.093 25.8162 174.693 23.5202ZM222.629 25.0322H235.621V28.9522H222.629V25.0322ZM222.629 38.1362H235.733V42.0562H222.629V38.1362ZM244.469 44.2402H264.797V48.1602H244.469V44.2402ZM222.517 51.5762H235.621V55.5522H222.517V51.5762ZM220.893 25.0322H224.757V45.1922C224.757 53.9282 224.197 66.3042 220.221 74.5922C219.437 73.9202 217.757 72.9682 216.749 72.5762C220.613 64.6802 220.893 53.4242 220.893 45.1922V25.0322ZM233.269 25.0322H237.189V69.4962C237.189 71.7362 236.685 73.0242 235.285 73.7522C233.829 74.4242 231.589 74.5362 227.781 74.4802C227.613 73.4722 227.109 71.5682 226.549 70.5042C229.181 70.5602 231.533 70.5602 232.205 70.5042C232.989 70.4482 233.269 70.2242 233.269 69.4402V25.0322ZM261.885 25.2002H265.917V36.0642C265.917 38.1362 265.469 39.2562 263.677 39.8722C261.941 40.4882 259.141 40.4882 254.885 40.4882C254.661 39.3122 254.045 37.9122 253.541 36.9042C256.901 36.9602 259.869 36.9602 260.765 36.9042C261.661 36.9042 261.885 36.6802 261.885 36.0082V25.2002ZM263.677 44.2402H264.405L265.077 44.1282L267.541 44.9682C264.741 59.3042 257.573 68.9922 248.837 74.2002C248.333 73.2482 247.213 71.7922 246.373 71.0642C254.325 66.8642 261.269 57.2882 263.677 45.0242V44.2402ZM250.741 46.6482C253.933 57.5122 260.429 67.0882 269.221 71.3442C268.269 72.1282 267.093 73.5842 266.477 74.5362C257.405 69.6082 250.909 59.4722 247.381 47.5442L250.741 46.6482ZM242.117 25.2002H263.005V29.1202H246.093V74.4802H242.117V25.2002ZM295.317 58.7442L299.517 60.2562C296.157 64.7362 291.229 69.3282 286.973 72.2402C286.133 71.5122 284.341 70.1122 283.277 69.4962C287.701 66.8642 292.405 62.7202 295.317 58.7442ZM314.973 60.4242L318.277 58.2402C322.757 61.5442 328.357 66.2482 331.213 69.3282L327.629 71.7922C324.997 68.7682 319.453 63.8402 314.973 60.4242ZM305.677 53.6482H309.933V69.3842C309.933 71.7922 309.429 72.9682 307.581 73.6402C305.733 74.3122 302.877 74.3682 298.789 74.3682C298.565 73.1362 297.837 71.3442 297.165 70.1682C300.581 70.3362 303.605 70.3362 304.557 70.2242C305.453 70.1682 305.677 70.0002 305.677 69.3282V53.6482ZM319.229 23.0162L322.309 26.3202C312.901 30.5202 298.229 33.8242 285.349 36.1202C285.181 35.0562 284.565 33.5442 284.061 32.6482C296.773 30.2962 311.165 26.7682 319.229 23.0162ZM286.525 58.0722C286.357 57.2322 285.685 55.1602 285.237 54.0402C287.029 53.8162 289.549 52.9202 292.965 51.3522C296.717 49.7282 308.757 43.5682 317.997 36.6242L321.245 39.3682C310.885 46.6482 299.965 52.1922 289.549 56.2242V56.3362C289.549 56.3362 286.525 57.2882 286.525 58.0722ZM286.525 58.0722L286.413 54.8802L289.325 53.3682L325.669 50.9042C325.557 52.0242 325.557 53.6482 325.557 54.5442C291.845 57.0082 288.653 57.2882 286.525 58.0722ZM289.549 46.3122C289.381 45.4722 288.765 43.4002 288.317 42.2802C289.549 42.1682 291.005 41.5522 292.853 40.6002C294.869 39.5922 301.253 35.7842 305.957 31.5842L309.709 33.9362C304.109 38.2482 298.117 41.8882 292.405 44.2962V44.4082C292.405 44.4082 289.549 45.5282 289.549 46.3122ZM289.549 46.3122L289.493 43.2882L291.957 42.0002L312.957 40.9362C312.733 42.0002 312.509 43.5682 312.453 44.4082C293.245 45.5842 291.005 45.8082 289.549 46.3122ZM316.429 45.6402L319.901 43.9042C324.157 47.7682 328.973 52.9202 331.381 56.2802L327.797 58.4642C325.445 55.0482 320.573 49.5602 316.429 45.6402ZM385.645 37.8002L389.117 36.2882C392.029 40.6002 395.501 46.2562 397.013 49.8402L393.261 51.6882C391.805 48.1602 388.501 42.1682 385.645 37.8002ZM366.997 30.0722H396.677V34.0482H366.997V30.0722ZM382.957 46.7602H386.933V68.0402C386.933 69.4962 387.157 69.7762 388.333 69.7762C388.893 69.7762 391.525 69.7762 392.253 69.7762C393.485 69.7762 393.709 68.7682 393.765 62.3282C394.717 63.0562 396.341 63.6722 397.517 64.0082C397.125 71.5122 396.117 73.5282 392.701 73.5282C391.861 73.5282 388.557 73.5282 387.829 73.5282C383.909 73.5282 382.957 72.2962 382.957 68.0402V46.7602ZM373.661 47.8802H377.693C377.301 61.9362 375.789 70.0562 365.653 74.7042C365.149 73.6962 363.973 72.2402 363.021 71.4562C372.261 67.4802 373.381 60.5362 373.661 47.8802ZM368.061 50.5682L367.949 47.3202L370.357 45.8642L392.533 43.6802C392.589 44.7442 392.757 46.3682 392.925 47.2082C371.981 49.5602 369.573 49.8962 368.061 50.5682ZM368.061 50.5682C367.837 49.6722 367.165 47.5442 366.605 46.4242C367.725 46.0882 368.957 44.5762 370.469 42.2242C372.149 39.9842 377.245 31.2482 380.325 22.9602L384.861 24.3042C380.997 33.0962 375.901 41.9442 371.085 48.1042V48.2162C371.085 48.2162 368.061 49.6722 368.061 50.5682ZM359.213 45.0242L362.293 43.9602C364.029 47.5442 365.709 52.1922 366.269 55.0482L363.021 56.3362C362.461 53.4242 360.893 48.6082 359.213 45.0242ZM354.173 59.4162L357.365 58.7442C358.037 62.4962 358.709 67.3682 358.877 70.6162L355.573 71.4002C355.405 68.1522 354.845 63.2242 354.173 59.4162ZM348.125 59.0242L351.597 59.6402C350.981 64.4562 349.861 69.7762 348.741 73.2482C348.013 72.8562 346.333 72.2962 345.437 72.0162C346.781 68.6002 347.621 63.5602 348.125 59.0242ZM346.837 43.9602C346.613 43.0642 345.941 41.1042 345.493 40.0402C346.445 39.8162 347.453 38.6402 348.629 36.9602C349.861 35.3362 353.837 28.8402 356.189 22.7362L360.053 24.4162C357.085 30.6882 353.221 37.1842 349.469 41.6642V41.7762C349.469 41.7762 346.837 43.0642 346.837 43.9602ZM346.837 43.9602L346.781 41.0482L348.629 39.8722L358.485 39.0322C358.317 39.9842 358.149 41.3842 358.205 42.2242C349.189 43.2322 347.677 43.5122 346.837 43.9602ZM347.173 56.5602C347.005 55.7202 346.333 53.7602 345.885 52.6402C347.061 52.3602 348.349 50.9602 350.029 48.8882C351.877 46.8162 357.813 38.7522 361.453 31.0802L365.093 33.1522C360.725 40.9362 355.293 48.7762 349.861 54.3762V54.4322C349.861 54.4322 347.173 55.7202 347.173 56.5602ZM347.173 56.5602L347.061 53.5362L348.909 52.2482L363.637 50.0642C363.469 51.0722 363.469 52.5282 363.581 53.3122C350.029 55.5522 348.293 56.0002 347.173 56.5602ZM360.389 58.2962L363.357 57.2882C364.589 60.5362 365.933 64.7362 366.549 67.4242L363.357 68.5442C362.853 65.7442 361.565 61.5442 360.389 58.2962Z" fill="black"/>
</svg>
