<svg width="114" height="33" viewBox="0 0 114 33" fill="none" xmlns="http://www.w3.org/2000/svg">
<path d="M113.901 15.0108V13.0297H111.414V9.94973L111.33 9.97523L108.993 10.6823L108.947 10.6961V13.0298H105.26V11.7297C105.26 11.1244 105.396 10.6611 105.666 10.3522C105.934 10.0469 106.317 9.89175 106.806 9.89175C107.157 9.89175 107.521 9.97359 107.887 10.135L107.979 10.1755V8.08909L107.935 8.0734C107.594 7.952 107.13 7.89087 106.554 7.89087C105.828 7.89087 105.169 8.04703 104.594 8.35652C104.019 8.66644 103.566 9.10888 103.249 9.67141C102.933 10.2333 102.773 10.8822 102.773 11.6004V13.0297H101.041V15.0108H102.773V23.3571H105.26V15.0108H108.947V20.3148C108.947 22.4992 109.989 23.6061 112.044 23.6061C112.381 23.6061 112.737 23.567 113.099 23.4904C113.469 23.4117 113.72 23.3331 113.868 23.2492L113.901 23.23V21.2306L113.8 21.2967C113.665 21.3856 113.497 21.4583 113.3 21.5124C113.102 21.5674 112.937 21.595 112.809 21.595C112.328 21.595 111.971 21.4667 111.75 21.2136C111.527 20.9581 111.414 20.5115 111.414 19.8866V15.0108H113.901ZM95.4883 21.5953C94.5858 21.5953 93.8742 21.2993 93.3728 20.7163C92.8682 20.1304 92.6126 19.295 92.6126 18.2336C92.6126 17.1385 92.8682 16.2814 93.373 15.6851C93.8748 15.0927 94.5795 14.792 95.468 14.792C96.3302 14.792 97.0165 15.0792 97.5081 15.6459C98.0022 16.2157 98.253 17.0659 98.253 18.1737C98.253 19.2952 98.0172 20.1566 97.5522 20.7329C97.0905 21.3048 96.3961 21.5953 95.4883 21.5953ZM95.5988 12.7809C93.877 12.7809 92.5094 13.2799 91.5343 14.264C90.5598 15.2483 90.0658 16.6104 90.0658 18.3128C90.0658 19.9297 90.548 21.2304 91.4993 22.1779C92.4507 23.1258 93.7453 23.6059 95.347 23.6059C97.0161 23.6059 98.3565 23.0999 99.3311 22.1022C100.306 21.1055 100.799 19.7563 100.799 18.0936C100.799 16.4514 100.336 15.1411 99.4219 14.1999C98.5073 13.2582 97.2208 12.7809 95.5988 12.7809ZM86.0568 12.7809C84.8855 12.7809 83.9167 13.0772 83.1766 13.6614C82.432 14.2491 82.0543 15.0199 82.0543 15.9526C82.0543 16.4374 82.1358 16.8681 82.2962 17.2334C82.4576 17.5999 82.7074 17.9225 83.0393 18.1933C83.3686 18.462 83.877 18.7433 84.5507 19.0296C85.117 19.2601 85.5393 19.4551 85.8076 19.6087C86.0699 19.7593 86.256 19.9107 86.3611 20.0581C86.4632 20.2024 86.515 20.3999 86.515 20.6435C86.515 21.3374 85.9897 21.675 84.9086 21.675C84.5077 21.675 84.0503 21.5922 83.5493 21.4289C83.0519 21.2681 82.5824 21.0327 82.1573 20.7308L82.054 20.6576V23.0253L82.0919 23.0427C82.4437 23.2033 82.8873 23.3388 83.4102 23.4454C83.932 23.5521 84.4061 23.6063 84.818 23.6063C86.0889 23.6063 87.1124 23.3086 87.8592 22.7209C88.6108 22.1292 88.9917 21.3402 88.9917 20.3752C88.9917 19.6791 88.7866 19.0821 88.3825 18.6007C87.9811 18.1232 87.2844 17.6848 86.3127 17.2972C85.5386 16.9899 85.0426 16.7348 84.838 16.539C84.6408 16.3498 84.5406 16.0823 84.5406 15.7435C84.5406 15.4431 84.6643 15.2025 84.918 15.0077C85.1737 14.8119 85.5297 14.7123 85.9762 14.7123C86.3905 14.7123 86.8144 14.777 87.2359 14.9038C87.6572 15.0307 88.0271 15.2006 88.336 15.4084L88.4376 15.477V13.2311L88.3986 13.2145C88.1136 13.0936 87.7379 12.9902 87.2815 12.9063C86.8273 12.823 86.4152 12.7809 86.0568 12.7809ZM75.5721 21.5953C74.6698 21.5953 73.958 21.2993 73.4567 20.7163C72.952 20.1304 72.6969 19.2952 72.6969 18.2336C72.6969 17.1385 72.9524 16.2814 73.4572 15.6851C73.9586 15.0927 74.6632 14.792 75.5521 14.792C76.414 14.792 77.1003 15.0792 77.5921 15.6459C78.0862 16.2157 78.3369 17.0659 78.3369 18.1737C78.3369 19.2952 78.101 20.1566 77.636 20.7329C77.1743 21.3048 76.4802 21.5953 75.5721 21.5953ZM75.6829 12.7809C73.9607 12.7809 72.593 13.2799 71.6184 14.264C70.6439 15.2483 70.1496 16.6104 70.1496 18.3128C70.1496 19.9304 70.6322 21.2304 71.5835 22.1779C72.5348 23.1258 73.8293 23.6059 75.4311 23.6059C77.0999 23.6059 78.4406 23.0999 79.4153 22.1022C80.3896 21.1055 80.8836 19.7563 80.8836 18.0936C80.8836 16.4514 80.4201 15.1411 79.5057 14.1999C78.5909 13.2582 77.3046 12.7809 75.6829 12.7809ZM66.3751 14.8182V13.0297H63.9189V23.3569H66.3751V18.0741C66.3751 17.1758 66.5811 16.4379 66.9874 15.8805C67.3886 15.3297 67.9232 15.0506 68.5759 15.0506C68.7972 15.0506 69.0455 15.0867 69.3145 15.1581C69.5807 15.229 69.7735 15.3061 69.8872 15.3871L69.9905 15.4611V13.012L69.9507 12.9951C69.7219 12.899 69.3983 12.8505 68.9889 12.8505C68.3716 12.8505 67.8193 13.0467 67.3462 13.4329C66.9309 13.7723 66.6308 14.2378 66.4012 14.8182H66.3751ZM59.5203 12.7809C58.3935 12.7809 57.3884 13.0199 56.5335 13.491C55.6768 13.9632 55.0143 14.6373 54.5635 15.4945C54.1148 16.3496 53.8869 17.3485 53.8869 18.4624C53.8869 19.4382 54.1078 20.3336 54.5445 21.1228C54.9814 21.9133 55.5997 22.5317 56.3824 22.9607C57.1641 23.389 58.0675 23.6062 59.0677 23.6062C60.235 23.6062 61.2316 23.3754 62.0306 22.9202L62.0629 22.9019V20.6763L61.9597 20.7509C61.5977 21.0116 61.1932 21.2198 60.758 21.3697C60.3239 21.5196 59.9281 21.5953 59.581 21.5953C58.6173 21.5953 57.8436 21.2971 57.282 20.709C56.7192 20.1202 56.4338 19.2934 56.4338 18.2531C56.4338 17.2061 56.7314 16.3581 57.3179 15.7324C57.9026 15.1085 58.6778 14.792 59.6216 14.792C60.4289 14.792 61.2156 15.0624 61.9599 15.5964L62.0629 15.6704V13.3253L62.0296 13.3068C61.7495 13.1517 61.3675 13.0237 60.8933 12.9266C60.4211 12.8297 59.9592 12.7809 59.5203 12.7809ZM52.1953 13.0298H49.7391V23.3569H52.1953V13.0298ZM50.9923 8.63037C50.588 8.63037 50.2355 8.76648 49.9458 9.03619C49.6549 9.30667 49.5074 9.64722 49.5074 10.0491C49.5074 10.4447 49.6531 10.779 49.9413 11.0423C50.2275 11.3048 50.5812 11.4379 50.9924 11.4379C51.4035 11.4379 51.7585 11.3048 52.0482 11.0427C52.3397 10.779 52.4876 10.4448 52.4876 10.0491C52.4876 9.66127 52.3437 9.32421 52.0602 9.04709C51.7769 8.77051 51.4175 8.63037 50.9923 8.63037ZM44.8639 12.2678V23.3569H47.3706V8.94651H43.9013L39.4915 19.6501L35.2121 8.94651H31.6016V23.3568H33.9572V12.2667H34.038L38.557 23.3569H40.3346L44.7831 12.2678H44.8639Z" fill="#706D6E"/>
<path d="M11.5547 15.5591H0V4.1311H11.5547V15.5591Z" fill="#F1511B"/>
<path d="M24.3123 15.5591H12.7578V4.1311H24.3123V15.5591Z" fill="#80CC28"/>
<path d="M11.5543 28.1813H0V16.7534H11.5543V28.1813Z" fill="#00ADEF"/>
<path d="M24.3123 28.1813H12.7578V16.7534H24.3123V28.1813Z" fill="#FBBC09"/>
</svg>
