<?xml version="1.0" encoding="UTF-8"?>
<svg width="11px" height="10px" viewBox="0 0 11 10" version="1.1" xmlns="http://www.w3.org/2000/svg" xmlns:xlink="http://www.w3.org/1999/xlink">
    <title>BA131FF7-A25B-4EDC-A788-25C1565B6402</title>
    <g id="B.商品資料" stroke="none" stroke-width="1" fill="none" fill-rule="evenodd">
        <g id="A-01.1a首頁" transform="translate(-1269.000000, -41.000000)" fill="#FFFFFF" fill-rule="nonzero">
            <g id="header/right-side-2" transform="translate(1040.000000, 0.000000)">
                <g id="Group-2" transform="translate(156.944724, 34.000000)">
                    <g id="ic/10/arrow/down-white" transform="translate(72.201005, 7.000000)">
                        <path d="M0.929790903,3.00847528 C0.988713178,2.94969922 1.0687185,2.91666667 1.15215271,2.91666667 C1.23558692,2.91666667 1.31559224,2.94969922 1.37451452,3.00847528 L4.92099693,6.53805861 L8.46747934,3.00847528 C8.59070127,2.88873784 8.78779761,2.88989838 8.90958667,3.01107849 C9.03137573,3.13225861 9.0325421,3.32836947 8.91220296,3.45097528 L5.14335874,7.20097528 C5.08443647,7.25975134 5.00443114,7.2927839 4.92099693,7.2927839 C4.83756272,7.2927839 4.7575574,7.25975134 4.69863512,7.20097528 L0.929790903,3.45097528 C0.870719483,3.39234762 0.837520938,3.31274232 0.837520938,3.22972528 C0.837520938,3.14670824 0.870719483,3.06710295 0.929790903,3.00847528 Z" id="chevron-down-2"></path>
                    </g>
                </g>
            </g>
        </g>
    </g>
</svg>
