<?xml version="1.0" encoding="UTF-8"?>
<svg width="25px" height="24px" viewBox="0 0 25 24" version="1.1" xmlns="http://www.w3.org/2000/svg" xmlns:xlink="http://www.w3.org/1999/xlink">
    <title>B3CE3BCE-0237-4D93-AD84-4098E5294D79</title>
    <g id="A.首頁" stroke="none" stroke-width="1" fill="none" fill-rule="evenodd">
        <g id="A-01.1b首頁-通知-待辦" transform="translate(-1080.000000, -33.000000)" fill="#333333" fill-rule="nonzero">
            <g id="header/right-side-2" transform="translate(1040.000000, 0.000000)">
                <g id="ic/24/navbar/setting-fill" transform="translate(40.201005, 33.000000)">
                    <path d="M12.0530412,23.9940079 C11.0696539,24.0080591 10.200047,23.3612709 9.93545326,22.418776 L9.78469949,21.908776 C9.59496151,21.2730851 9.12716618,20.7564649 8.51145591,20.5026409 C7.89574563,20.2488169 7.19781656,20.2848722 6.61183517,20.600776 L6.14248843,20.853776 C5.81672371,21.0347166 5.45024042,21.1306955 5.0771618,21.132776 C4.2930679,21.1232048 3.57124619,20.7058599 3.17464924,20.032776 C2.77433443,19.371897 2.76395749,18.5474225 3.14751356,17.876776 L3.40379497,17.411776 C3.72128621,16.8287245 3.75752265,16.1342851 3.50242317,15.5216534 C3.2473237,14.9090216 2.72810737,14.4435653 2.0892221,14.254776 L1.57665929,14.104776 C0.640943145,13.825918 0,12.9691776 0,11.997276 C0,11.0253744 0.640943145,10.168634 1.57665929,9.88977599 L2.0892221,9.73977599 C2.72908674,9.55102887 3.24903297,9.08480615 3.50404464,8.47114018 C3.75905631,7.8574742 3.72184529,7.16203177 3.40278994,6.57877599 L3.14751356,6.11177599 C2.7640087,5.44192848 2.77400132,4.61821773 3.17364421,3.95777599 C3.5716743,3.28271434 4.29663394,2.86509942 5.08319195,2.85777599 C5.45627057,2.85985651 5.82275386,2.95583538 6.14851858,3.13677599 L6.61585527,3.39177599 C6.9399525,3.56742238 7.30308184,3.65955565 7.67213667,3.65977599 C8.65026765,3.65573779 9.50949505,3.01270908 9.78469949,2.07877599 L9.93545326,1.56877599 C10.2157126,0.637738429 11.0767582,0 12.0535437,0 C13.0303292,0 13.8913749,0.637738429 14.1716342,1.56877599 L14.3223879,2.07877599 C14.5998487,3.01214372 15.4607405,3.65316064 16.4389708,3.65477599 C16.8080257,3.65455565 17.171155,3.56242238 17.4952523,3.38677599 L17.963594,3.13277599 C18.2893587,2.95183538 18.655842,2.85585651 19.0289206,2.85377599 C19.8130145,2.86334716 20.5348362,3.28069204 20.9314332,3.95377599 C21.331324,4.61477509 21.3416981,5.43902001 20.9585688,6.10977599 L20.7022874,6.57477599 C20.3847962,7.15782748 20.3485597,7.8522669 20.6036592,8.46489863 C20.8587587,9.07753035 21.377975,9.5429867 22.0168603,9.73177599 L22.5294231,9.88177599 C23.4651392,10.160634 24.1060824,11.0173744 24.1060824,11.989276 C24.1060824,12.9611776 23.4651392,13.817918 22.5294231,14.096776 L22.0168603,14.246776 C21.377975,14.4355653 20.8587587,14.9010216 20.6036592,15.5136534 C20.3485597,16.1262851 20.3847962,16.8207245 20.7022874,17.403776 L20.9565588,17.869776 C21.3402431,18.5399329 21.3302505,19.3640248 20.9304281,20.024776 C20.5333176,20.6983205 19.8106646,21.1157051 19.0259055,21.124776 C18.6529146,21.1230013 18.2864368,21.0273679 17.9605789,20.846776 L17.4932422,20.591776 C16.9072608,20.2758722 16.2093317,20.2398169 15.5936215,20.4936409 C14.9779112,20.7474649 14.5101159,21.2640851 14.3203779,21.899776 L14.1696241,22.409776 C13.9085404,23.3554812 13.0386225,24.006507 12.0530412,23.9940079 Z M12.0530412,7.59377187 C10.2639177,7.59134847 8.64960596,8.66183359 7.96324688,10.3058073 C7.27688779,11.949781 7.6537349,13.8432827 8.91797398,15.1029182 C10.1822131,16.3625538 12.0847139,16.7401001 13.7378838,16.0594168 C15.3910537,15.3787335 16.4691216,13.7739555 16.4691216,11.993776 C16.4691216,9.56606431 14.4929502,7.59708651 12.0530412,7.59377187 Z" id="gear-fill-2"></path>
                </g>
            </g>
        </g>
    </g>
</svg>