<?xml version="1.0" encoding="UTF-8"?>
<svg width="25px" height="24px" viewBox="0 0 25 24" version="1.1" xmlns="http://www.w3.org/2000/svg" xmlns:xlink="http://www.w3.org/1999/xlink">
    <title>2FF59409-B379-4F8F-BC6B-4F109AA750A9</title>
    <g id="A.首頁" stroke="none" stroke-width="1" fill="none" fill-rule="evenodd">
        <g id="A-01.1b首頁-通知-待辦" transform="translate(-1315.000000, -33.000000)" fill="#333333">
            <g id="header/right-side-2" transform="translate(1040.000000, 0.000000)">
                <g id="Group" transform="translate(275.376884, 33.000000)">
                    <path d="M20.221556,18.0469988 C23.5746504,13.682904 23.0143979,7.80341322 18.9489183,4.23471982 C14.8767021,0.659882157 8.5421437,0.857056797 4.70402105,4.67766455 C1.01634696,8.3496931 0.686819681,14.1364616 3.98096971,18.0190704 C9.38925897,14.0269822 14.8267397,14.1023889 20.221556,18.0469988 M11.7155981,23.9438053 C5.05600333,23.746072 -0.130542699,18.3519772 0.00250323812,11.7619874 C0.139478802,5.01783269 5.6330971,-0.188583219 12.4088965,0.00524001046 C19.1852573,0.19906324 24.3920128,5.73726877 24.1096411,12.4518193 C23.8317603,19.0736475 18.3662108,24.1404213 11.7155981,23.9438053" id="Fill-4"></path>
                    <path d="M11.9779848,4.50445249 C14.5822047,4.46200129 16.6587318,6.39017935 16.7698841,8.95512538 C16.8872115,11.6541278 14.8527876,13.8090846 12.1458361,13.8537701 C9.42877979,13.897897 7.32474531,11.8200226 7.35505958,9.12213732 C7.38425109,6.53261429 9.37208089,4.54690369 11.9779848,4.50445249" id="Fill-6"></path>
                </g>
            </g>
        </g>
    </g>
</svg>
